{
  "source": "C:\\Users\\Peter\\Desktop\\stuff\\MIUN\\quantitative_research\\video_compression\\videos\\HEVC_CLASS_B\\ParkScene_1920x1080_24.y4m",
  "output": "C:\\Users\\Peter\\Desktop\\stuff\\MIUN\\quantitative_research\\video_compression\\compressed_videos\\HEVC_CLASS_B\\hevc\\3\\ParkScene_1920x1080_24_hevc.mp4",
  "codec": "hevc",
  "ok": "Input #0, yuv4mpegpipe, from 'C:\\Users\\Peter\\Desktop\\stuff\\MIUN\\quantitative_research\\video_compression\\videos\\HEVC_CLASS_B\\ParkScene_1920x1080_24.y4m':\n  Duration: 00:00:10.00, start: 0.000000, bitrate: 597198 kb/s\n  Stream #0:0: Video: rawvideo (I420 / 0x30323449), yuv420p(progressive), 1920x1080, 24 fps, 24 tbr, 24 tbn\n[out#0/mp4 @ 000001ae8f16a180] Codec AVOption b:a (set bitrate (in bits/s)) has not been used for any stream. The most likely reason is either wrong type (e.g. a video option with no video streams) or that it is a private option of some decoder which was not actually used for any stream.\nStream mapping:\n  Stream #0:0 -> #0:0 (rawvideo (native) -> hevc (libx265))\nPress [q] to stop, [?] for help\n[libx265 @ 000001ae8f16c900] Unknown option: \"aq-mode.\nx265 [info]: HEVC encoder version 4.1+190-8f11c33ac\nx265 [info]: build info [Windows][GCC 15.1.0][64 bit] 10bit\nx265 [info]: using cpu capabilities: MMX2 SSE2Fast LZCNT SSSE3 SSE4.2 AVX FMA3 BMI2 AVX2\nx265 [info]: Main 10 profile, Level-4 (Main tier)\nx265 [info]: Thread pool created using 12 threads\nx265 [info]: Slices                              : 1\nx265 [info]: frame threads / pool features       : 3 / wpp(17 rows)\nx265 [info]: Coding QT: max CU size, min CU size : 64 / 8\nx265 [info]: Residual QT: max TU size, max depth : 32 / 1 inter / 1 intra\nx265 [info]: ME / range / subpel / merge         : star / 57 / 3 / 3\nx265 [info]: Keyframe min / max / scenecut / bias  : 24 / 250 / 40 / 5.00 \nx265 [info]: Lookahead / bframes / badapt        : 25 / 4 / 2\nx265 [info]: b-pyramid / weightp / weightb       : 1 / 1 / 0\nx265 [info]: References / ref-limit  cu / depth  : 4 / on / on\nx265 [info]: AQ: mode / str / qg-size / cu-tree  : 2 / 1.0 / 32 / 1\nx265 [info]: Rate Control / qCompress            : ABR-3000 kbps / 0.60\nx265 [info]: VBV/HRD buffer / max-rate / init    : 3000 / 3000 / 0.750\nx265 [info]: tools: rect limit-modes rd=4 psy-rd=2.00 rdoq=2 psy-rdoq=1.00\nx265 [info]: tools: rskip mode=1 signhide tmvp strong-intra-smoothing lslices=4\nx265 [info]: tools: deblock sao dhdr10-info\nOutput #0, mp4, to 'C:\\Users\\Peter\\Desktop\\stuff\\MIUN\\quantitative_research\\video_compression\\compressed_videos\\HEVC_CLASS_B\\hevc\\3\\ParkScene_1920x1080_24_hevc.mp4':\n  Metadata:\n    encoder         : Lavf62.3.100\n  Stream #0:0: Video: hevc (hev1 / 0x31766568), yuv420p10le(tv, progressive), 1920x1080, q=2-31, 3000 kb/s, 24 fps, 12288 tbn\n    Metadata:\n      encoder         : Lavc62.11.100 libx265\n    Side data:\n      cpb: bitrate max/min/avg: 3000000/0/3000000 buffer size: 3000000 vbv_delay: N/A\nframe=    0 fps=0.0 q=0.0 size=       0KiB time=N/A bitrate=N/A speed=N/A elapsed=0:00:00.52    \nframe=    0 fps=0.0 q=0.0 size=       0KiB time=N/A bitrate=N/A speed=N/A elapsed=0:00:01.03    \nframe=    0 fps=0.0 q=0.0 size=       0KiB time=N/A bitrate=N/A speed=N/A elapsed=0:00:01.55    \nframe=    0 fps=0.0 q=0.0 size=       0KiB time=N/A bitrate=N/A speed=N/A elapsed=0:00:02.06    \nframe=    0 fps=0.0 q=0.0 size=       0KiB time=N/A bitrate=N/A speed=N/A elapsed=0:00:02.58    \nframe=    0 fps=0.0 q=0.0 size=       0KiB time=N/A bitrate=N/A speed=N/A elapsed=0:00:03.10    \nframe=    0 fps=0.0 q=0.0 size=       0KiB time=N/A bitrate=N/A speed=N/A elapsed=0:00:03.60    \nframe=    0 fps=0.0 q=0.0 size=       0KiB time=N/A bitrate=N/A speed=N/A elapsed=0:00:04.12    \nframe=    0 fps=0.0 q=0.0 size=       0KiB time=N/A bitrate=N/A speed=N/A elapsed=0:00:04.64    \nframe=    0 fps=0.0 q=0.0 size=       0KiB time=N/A bitrate=N/A speed=N/A elapsed=0:00:05.16    \nframe=    0 fps=0.0 q=0.0 size=       0KiB time=N/A bitrate=N/A speed=N/A elapsed=0:00:05.68    \nframe=    0 fps=0.0 q=0.0 size=       0KiB time=N/A bitrate=N/A speed=N/A elapsed=0:00:06.19    \nframe=    0 fps=0.0 q=0.0 size=       0KiB time=N/A bitrate=N/A speed=N/A elapsed=0:00:06.70    \nframe=    0 fps=0.0 q=0.0 size=       0KiB time=N/A bitrate=N/A speed=N/A elapsed=0:00:07.21    \nframe=    0 fps=0.0 q=0.0 size=       0KiB time=N/A bitrate=N/A speed=N/A elapsed=0:00:07.73    \nframe=    0 fps=0.0 q=0.0 size=       0KiB time=N/A bitrate=N/A speed=N/A elapsed=0:00:08.25    \nframe=    0 fps=0.0 q=0.0 size=       0KiB time=N/A bitrate=N/A speed=N/A elapsed=0:00:08.77    \nframe=    0 fps=0.0 q=0.0 size=       0KiB time=N/A bitrate=N/A speed=N/A elapsed=0:00:09.28    \nframe=    0 fps=0.0 q=0.0 size=       0KiB time=N/A bitrate=N/A speed=N/A elapsed=0:00:09.80    \nframe=    0 fps=0.0 q=0.0 size=       0KiB time=N/A bitrate=N/A speed=N/A elapsed=0:00:10.33    \nframe=    0 fps=0.0 q=0.0 size=       0KiB time=N/A bitrate=N/A speed=N/A elapsed=0:00:10.84    \nframe=    0 fps=0.0 q=0.0 size=       0KiB time=N/A bitrate=N/A speed=N/A elapsed=0:00:11.35    \nframe=    0 fps=0.0 q=0.0 size=       0KiB time=N/A bitrate=N/A speed=N/A elapsed=0:00:11.88    \nframe=    0 fps=0.0 q=0.0 size=       0KiB time=N/A bitrate=N/A speed=N/A elapsed=0:00:12.41    \nframe=    0 fps=0.0 q=0.0 size=       0KiB time=N/A bitrate=N/A speed=N/A elapsed=0:00:12.91    \nframe=    0 fps=0.0 q=0.0 size=       0KiB time=N/A bitrate=N/A speed=N/A elapsed=0:00:13.44    \nframe=    0 fps=0.0 q=0.0 size=       0KiB time=N/A bitrate=N/A speed=N/A elapsed=0:00:13.95    \nframe=    0 fps=0.0 q=0.0 size=       0KiB time=N/A bitrate=N/A speed=N/A elapsed=0:00:14.47    \nframe=    0 fps=0.0 q=0.0 size=       0KiB time=N/A bitrate=N/A speed=N/A elapsed=0:00:14.98    \nframe=    0 fps=0.0 q=0.0 size=       0KiB time=N/A bitrate=N/A speed=N/A elapsed=0:00:15.50    \nframe=    0 fps=0.0 q=0.0 size=       0KiB time=N/A bitrate=N/A speed=N/A elapsed=0:00:16.01    \nframe=    0 fps=0.0 q=0.0 size=       0KiB time=N/A bitrate=N/A speed=N/A elapsed=0:00:16.53    \nframe=    0 fps=0.0 q=0.0 size=       0KiB time=N/A bitrate=N/A speed=N/A elapsed=0:00:17.05    \nframe=    0 fps=0.0 q=0.0 size=       0KiB time=N/A bitrate=N/A speed=N/A elapsed=0:00:17.56    \nframe=    0 fps=0.0 q=0.0 size=       0KiB time=N/A bitrate=N/A speed=N/A elapsed=0:00:18.08    \nframe=    0 fps=0.0 q=0.0 size=       0KiB time=N/A bitrate=N/A speed=N/A elapsed=0:00:18.59    \nframe=    1 fps=0.1 q=29.3 size=       0KiB time=-00:00:00.04 bitrate=N/A speed=N/A elapsed=0:00:19.11    \nframe=    1 fps=0.1 q=29.3 size=       0KiB time=-00:00:00.04 bitrate=N/A speed=N/A elapsed=0:00:19.62    \nframe=    2 fps=0.1 q=35.5 size=       0KiB time=00:00:00.00 bitrate=N/A speed=   0x elapsed=0:00:20.14    \nframe=    2 fps=0.1 q=35.5 size=       0KiB time=00:00:00.00 bitrate=N/A speed=   0x elapsed=0:00:20.65    \nframe=    3 fps=0.1 q=39.1 size=       0KiB time=00:00:00.04 bitrate=   8.4kbits/s speed=0.00197x elapsed=0:00:21.16    \nframe=    3 fps=0.1 q=39.1 size=       0KiB time=00:00:00.04 bitrate=   8.4kbits/s speed=0.00192x elapsed=0:00:21.68    \nframe=    3 fps=0.1 q=39.1 size=       0KiB time=00:00:00.04 bitrate=   8.4kbits/s speed=0.00188x elapsed=0:00:22.20    \nframe=    3 fps=0.1 q=39.1 size=       0KiB time=00:00:00.04 bitrate=   8.4kbits/s speed=0.00183x elapsed=0:00:22.71    \nframe=    3 fps=0.1 q=39.1 size=       0KiB time=00:00:00.04 bitrate=   8.4kbits/s speed=0.00179x elapsed=0:00:23.23    \nframe=    3 fps=0.1 q=39.1 size=       0KiB time=00:00:00.04 bitrate=   8.4kbits/s speed=0.00175x elapsed=0:00:23.75    \nframe=    4 fps=0.2 q=42.4 size=       0KiB time=00:00:00.08 bitrate=   4.2kbits/s speed=0.00343x elapsed=0:00:24.26    \nframe=    4 fps=0.2 q=42.4 size=       0KiB time=00:00:00.08 bitrate=   4.2kbits/s speed=0.00336x elapsed=0:00:24.78    \nframe=    4 fps=0.2 q=42.4 size=       0KiB time=00:00:00.08 bitrate=   4.2kbits/s speed=0.00329x elapsed=0:00:25.30    \nframe=    4 fps=0.2 q=42.4 size=       0KiB time=00:00:00.08 bitrate=   4.2kbits/s speed=0.00323x elapsed=0:00:25.81    \nframe=    4 fps=0.2 q=42.4 size=       0KiB time=00:00:00.08 bitrate=   4.2kbits/s speed=0.00316x elapsed=0:00:26.33    \nframe=    5 fps=0.2 q=39.4 size=       0KiB time=00:00:00.12 bitrate=   2.8kbits/s speed=0.00466x elapsed=0:00:26.84    \nframe=    5 fps=0.2 q=39.4 size=       0KiB time=00:00:00.12 bitrate=   2.8kbits/s speed=0.00457x elapsed=0:00:27.36    \nframe=    5 fps=0.2 q=39.4 size=       0KiB time=00:00:00.12 bitrate=   2.8kbits/s speed=0.00448x elapsed=0:00:27.88    \nframe=    6 fps=0.2 q=33.1 size=       0KiB time=00:00:00.16 bitrate=   2.1kbits/s speed=0.00587x elapsed=0:00:28.40    \nframe=    6 fps=0.2 q=33.1 size=       0KiB time=00:00:00.16 bitrate=   2.1kbits/s speed=0.00576x elapsed=0:00:28.92    \nframe=    6 fps=0.2 q=33.1 size=       0KiB time=00:00:00.16 bitrate=   2.1kbits/s speed=0.00566x elapsed=0:00:29.43    \nframe=    6 fps=0.2 q=33.1 size=       0KiB time=00:00:00.16 bitrate=   2.1kbits/s speed=0.00556x elapsed=0:00:29.95    \nframe=    7 fps=0.2 q=35.6 size=       0KiB time=00:00:00.20 bitrate=   1.7kbits/s speed=0.00683x elapsed=0:00:30.49    \nframe=    7 fps=0.2 q=35.6 size=       0KiB time=00:00:00.20 bitrate=   1.7kbits/s speed=0.00672x elapsed=0:00:31.01    \nframe=    7 fps=0.2 q=35.6 size=       0KiB time=00:00:00.20 bitrate=   1.7kbits/s speed=0.00661x elapsed=0:00:31.53    \nframe=    7 fps=0.2 q=35.6 size=       0KiB time=00:00:00.20 bitrate=   1.7kbits/s speed=0.0065x elapsed=0:00:32.06    \nframe=    7 fps=0.2 q=35.6 size=       0KiB time=00:00:00.20 bitrate=   1.7kbits/s speed=0.00639x elapsed=0:00:32.58    \nframe=    7 fps=0.2 q=35.6 size=       0KiB time=00:00:00.20 bitrate=   1.7kbits/s speed=0.00629x elapsed=0:00:33.10    \nframe=    7 fps=0.2 q=35.6 size=       0KiB time=00:00:00.20 bitrate=   1.7kbits/s speed=0.0062x elapsed=0:00:33.62    \nframe=    8 fps=0.2 q=35.4 size=       0KiB time=00:00:00.25 bitrate=   1.4kbits/s speed=0.00732x elapsed=0:00:34.15    \nframe=    8 fps=0.2 q=35.4 size=       0KiB time=00:00:00.25 bitrate=   1.4kbits/s speed=0.00721x elapsed=0:00:34.68    \nframe=    8 fps=0.2 q=35.4 size=       0KiB time=00:00:00.25 bitrate=   1.4kbits/s speed=0.0071x elapsed=0:00:35.21    \nframe=    9 fps=0.3 q=35.4 size=       0KiB time=00:00:00.29 bitrate=   1.2kbits/s speed=0.00816x elapsed=0:00:35.73    \nframe=    9 fps=0.2 q=35.4 size=       0KiB time=00:00:00.29 bitrate=   1.2kbits/s speed=0.00804x elapsed=0:00:36.25    \nframe=    9 fps=0.2 q=35.4 size=       0KiB time=00:00:00.29 bitrate=   1.2kbits/s speed=0.00792x elapsed=0:00:36.82    \nframe=    9 fps=0.2 q=35.4 size=       0KiB time=00:00:00.29 bitrate=   1.2kbits/s speed=0.0078x elapsed=0:00:37.37    \nframe=   10 fps=0.3 q=31.2 size=       0KiB time=00:00:00.33 bitrate=   1.1kbits/s speed=0.00879x elapsed=0:00:37.90    \nframe=   10 fps=0.3 q=31.2 size=       0KiB time=00:00:00.33 bitrate=   1.1kbits/s speed=0.00867x elapsed=0:00:38.42    \nframe=   11 fps=0.3 q=34.4 size=       0KiB time=00:00:00.37 bitrate=   0.9kbits/s speed=0.00963x elapsed=0:00:38.94    \nframe=   11 fps=0.3 q=34.4 size=       0KiB time=00:00:00.37 bitrate=   0.9kbits/s speed=0.00949x elapsed=0:00:39.50    \nframe=   11 fps=0.3 q=34.4 size=       0KiB time=00:00:00.37 bitrate=   0.9kbits/s speed=0.00937x elapsed=0:00:40.02    \nframe=   11 fps=0.3 q=34.4 size=       0KiB time=00:00:00.37 bitrate=   0.9kbits/s speed=0.00925x elapsed=0:00:40.55    \nframe=   11 fps=0.3 q=34.4 size=       0KiB time=00:00:00.37 bitrate=   0.9kbits/s speed=0.00913x elapsed=0:00:41.08    \nframe=   11 fps=0.3 q=34.4 size=       0KiB time=00:00:00.37 bitrate=   0.9kbits/s speed=0.00901x elapsed=0:00:41.61    \nframe=   11 fps=0.3 q=34.4 size=       0KiB time=00:00:00.37 bitrate=   0.9kbits/s speed=0.0089x elapsed=0:00:42.13    \nframe=   11 fps=0.3 q=34.4 size=       0KiB time=00:00:00.37 bitrate=   0.9kbits/s speed=0.00878x elapsed=0:00:42.69    \nframe=   11 fps=0.3 q=34.4 size=       0KiB time=00:00:00.37 bitrate=   0.9kbits/s speed=0.00867x elapsed=0:00:43.24    \nframe=   12 fps=0.3 q=35.3 size=       0KiB time=00:00:00.41 bitrate=   0.8kbits/s speed=0.00951x elapsed=0:00:43.79    \nframe=   12 fps=0.3 q=35.3 size=       0KiB time=00:00:00.41 bitrate=   0.8kbits/s speed=0.0094x elapsed=0:00:44.31    \nframe=   12 fps=0.3 q=35.3 size=       0KiB time=00:00:00.41 bitrate=   0.8kbits/s speed=0.00929x elapsed=0:00:44.83    \nframe=   12 fps=0.3 q=35.3 size=       0KiB time=00:00:00.41 bitrate=   0.8kbits/s speed=0.00919x elapsed=0:00:45.34    \nframe=   13 fps=0.3 q=36.0 size=       0KiB time=00:00:00.45 bitrate=   0.8kbits/s speed=0.00999x elapsed=0:00:45.85    \nframe=   13 fps=0.3 q=36.0 size=       0KiB time=00:00:00.45 bitrate=   0.8kbits/s speed=0.00988x elapsed=0:00:46.37    \nframe=   14 fps=0.3 q=30.1 size=       0KiB time=00:00:00.50 bitrate=   0.7kbits/s speed=0.0107x elapsed=0:00:46.90    \nframe=   14 fps=0.3 q=30.1 size=       0KiB time=00:00:00.50 bitrate=   0.7kbits/s speed=0.0105x elapsed=0:00:47.41    \nframe=   14 fps=0.3 q=30.1 size=       0KiB time=00:00:00.50 bitrate=   0.7kbits/s speed=0.0104x elapsed=0:00:47.94    \nframe=   15 fps=0.3 q=35.6 size=     256KiB time=00:00:00.54 bitrate=3872.3kbits/s speed=0.0112x elapsed=0:00:48.46    \nframe=   16 fps=0.3 q=36.5 size=     256KiB time=00:00:00.58 bitrate=3595.7kbits/s speed=0.0119x elapsed=0:00:48.96    \nframe=   16 fps=0.3 q=36.5 size=     256KiB time=00:00:00.58 bitrate=3595.7kbits/s speed=0.0118x elapsed=0:00:49.52    \nframe=   16 fps=0.3 q=36.5 size=     256KiB time=00:00:00.58 bitrate=3595.7kbits/s speed=0.0116x elapsed=0:00:50.07    \nframe=   16 fps=0.3 q=36.5 size=     256KiB time=00:00:00.58 bitrate=3595.7kbits/s speed=0.0115x elapsed=0:00:50.63    \nframe=   16 fps=0.3 q=36.5 size=     256KiB time=00:00:00.58 bitrate=3595.7kbits/s speed=0.0114x elapsed=0:00:51.20    \nframe=   17 fps=0.3 q=36.9 size=     256KiB time=00:00:00.62 bitrate=3356.0kbits/s speed=0.0121x elapsed=0:00:51.72    \nframe=   17 fps=0.3 q=36.9 size=     256KiB time=00:00:00.62 bitrate=3356.0kbits/s speed=0.012x elapsed=0:00:52.24    \nframe=   17 fps=0.3 q=36.9 size=     256KiB time=00:00:00.62 bitrate=3356.0kbits/s speed=0.0118x elapsed=0:00:52.78    \nframe=   18 fps=0.3 q=36.5 size=     256KiB time=00:00:00.66 bitrate=3146.3kbits/s speed=0.0125x elapsed=0:00:53.30    \nframe=   18 fps=0.3 q=36.5 size=     256KiB time=00:00:00.66 bitrate=3146.3kbits/s speed=0.0124x elapsed=0:00:53.82    \nframe=   18 fps=0.3 q=36.5 size=     256KiB time=00:00:00.66 bitrate=3146.3kbits/s speed=0.0123x elapsed=0:00:54.35    \nframe=   18 fps=0.3 q=36.5 size=     256KiB time=00:00:00.66 bitrate=3146.3kbits/s speed=0.0121x elapsed=0:00:54.88    \nframe=   18 fps=0.3 q=36.5 size=     256KiB time=00:00:00.66 bitrate=3146.3kbits/s speed=0.012x elapsed=0:00:55.41    \nframe=   18 fps=0.3 q=36.5 size=     256KiB time=00:00:00.66 bitrate=3146.3kbits/s speed=0.0119x elapsed=0:00:55.95    \nframe=   19 fps=0.3 q=29.8 size=     256KiB time=00:00:00.70 bitrate=2961.2kbits/s speed=0.0125x elapsed=0:00:56.49    \nframe=   19 fps=0.3 q=29.8 size=     256KiB time=00:00:00.70 bitrate=2961.2kbits/s speed=0.0124x elapsed=0:00:57.05    \nframe=   20 fps=0.3 q=33.8 size=     256KiB time=00:00:00.75 bitrate=2796.7kbits/s speed=0.013x elapsed=0:00:57.58    \nframe=   20 fps=0.3 q=33.8 size=     256KiB time=00:00:00.75 bitrate=2796.7kbits/s speed=0.0129x elapsed=0:00:58.09    \nframe=   20 fps=0.3 q=33.8 size=     256KiB time=00:00:00.75 bitrate=2796.7kbits/s speed=0.0128x elapsed=0:00:58.62    \nframe=   21 fps=0.4 q=36.1 size=     256KiB time=00:00:00.79 bitrate=2649.5kbits/s speed=0.0134x elapsed=0:00:59.16    \nframe=   21 fps=0.4 q=36.1 size=     256KiB time=00:00:00.79 bitrate=2649.5kbits/s speed=0.0133x elapsed=0:00:59.67    \nframe=   21 fps=0.3 q=36.1 size=     256KiB time=00:00:00.79 bitrate=2649.5kbits/s speed=0.0132x elapsed=0:01:00.19    \nframe=   21 fps=0.3 q=36.1 size=     256KiB time=00:00:00.79 bitrate=2649.5kbits/s speed=0.013x elapsed=0:01:00.73    \nframe=   22 fps=0.4 q=36.4 size=     256KiB time=00:00:00.83 bitrate=2517.0kbits/s speed=0.0136x elapsed=0:01:01.32    \nframe=   22 fps=0.4 q=36.4 size=     256KiB time=00:00:00.83 bitrate=2517.0kbits/s speed=0.0135x elapsed=0:01:01.87    \nframe=   23 fps=0.4 q=29.8 size=     256KiB time=00:00:00.87 bitrate=2397.1kbits/s speed=0.014x elapsed=0:01:02.45    \nframe=   24 fps=0.4 q=33.3 size=     256KiB time=00:00:00.91 bitrate=2288.2kbits/s speed=0.0145x elapsed=0:01:03.01    \nframe=   25 fps=0.4 q=36.6 size=     256KiB time=00:00:00.95 bitrate=2188.7kbits/s speed=0.0151x elapsed=0:01:03.57    \nframe=   25 fps=0.4 q=36.6 size=     256KiB time=00:00:00.95 bitrate=2188.7kbits/s speed=0.0149x elapsed=0:01:04.11    \nframe=   25 fps=0.4 q=36.6 size=     256KiB time=00:00:00.95 bitrate=2188.7kbits/s speed=0.0148x elapsed=0:01:04.65    \nframe=   25 fps=0.4 q=36.6 size=     256KiB time=00:00:00.95 bitrate=2188.7kbits/s speed=0.0147x elapsed=0:01:05.18    \nframe=   26 fps=0.4 q=36.6 size=     256KiB time=00:00:01.00 bitrate=2097.5kbits/s speed=0.0152x elapsed=0:01:05.72    \nframe=   27 fps=0.4 q=36.3 size=     256KiB time=00:00:01.04 bitrate=2013.6kbits/s speed=0.0157x elapsed=0:01:06.26    \nframe=   27 fps=0.4 q=36.3 size=     256KiB time=00:00:01.04 bitrate=2013.6kbits/s speed=0.0156x elapsed=0:01:06.85    \nframe=   27 fps=0.4 q=36.3 size=     256KiB time=00:00:01.04 bitrate=2013.6kbits/s speed=0.0155x elapsed=0:01:07.37    \nframe=   28 fps=0.4 q=29.7 size=     256KiB time=00:00:01.08 bitrate=1936.2kbits/s speed=0.0159x elapsed=0:01:07.93    \nframe=   29 fps=0.4 q=33.7 size=     256KiB time=00:00:01.12 bitrate=1864.4kbits/s speed=0.0164x elapsed=0:01:08.44    \nframe=   29 fps=0.4 q=33.7 size=     256KiB time=00:00:01.12 bitrate=1864.4kbits/s speed=0.0163x elapsed=0:01:08.96    \nframe=   30 fps=0.4 q=36.2 size=     256KiB time=00:00:01.16 bitrate=1797.9kbits/s speed=0.0168x elapsed=0:01:09.47    \nframe=   31 fps=0.4 q=36.4 size=     256KiB time=00:00:01.20 bitrate=1735.9kbits/s speed=0.0173x elapsed=0:01:09.99    \nframe=   33 fps=0.5 q=33.8 size=     256KiB time=00:00:01.29 bitrate=1623.9kbits/s speed=0.0183x elapsed=0:01:10.49    \nframe=   33 fps=0.5 q=33.8 size=     256KiB time=00:00:01.29 bitrate=1623.9kbits/s speed=0.0182x elapsed=0:01:11.01    \nframe=   34 fps=0.5 q=36.3 size=     256KiB time=00:00:01.33 bitrate=1573.1kbits/s speed=0.0186x elapsed=0:01:11.56    \nframe=   36 fps=0.5 q=29.6 size=     512KiB time=00:00:01.41 bitrate=2960.9kbits/s speed=0.0197x elapsed=0:01:12.07    \nframe=   37 fps=0.5 q=33.8 size=     512KiB time=00:00:01.45 bitrate=2876.3kbits/s speed=0.0201x elapsed=0:01:12.59    \nframe=   37 fps=0.5 q=33.8 size=     512KiB time=00:00:01.45 bitrate=2876.3kbits/s speed=0.0199x elapsed=0:01:13.11    \nframe=   38 fps=0.5 q=36.4 size=     512KiB time=00:00:01.50 bitrate=2796.4kbits/s speed=0.0204x elapsed=0:01:13.63    \nframe=   39 fps=0.5 q=36.5 size=     512KiB time=00:00:01.54 bitrate=2720.9kbits/s speed=0.0208x elapsed=0:01:14.14    \nframe=   41 fps=0.5 q=34.0 size=     512KiB time=00:00:01.62 bitrate=2581.3kbits/s speed=0.0218x elapsed=0:01:14.66    \nframe=   41 fps=0.5 q=34.0 size=     512KiB time=00:00:01.62 bitrate=2581.3kbits/s speed=0.0216x elapsed=0:01:15.17    \nframe=   42 fps=0.6 q=36.7 size=     512KiB time=00:00:01.66 bitrate=2516.8kbits/s speed=0.022x elapsed=0:01:15.69    \nframe=   43 fps=0.6 q=36.7 size=     512KiB time=00:00:01.70 bitrate=2455.4kbits/s speed=0.0224x elapsed=0:01:16.21    \nframe=   44 fps=0.6 q=29.7 size=     512KiB time=00:00:01.75 bitrate=2396.9kbits/s speed=0.0228x elapsed=0:01:16.72    \nframe=   45 fps=0.6 q=33.7 size=     512KiB time=00:00:01.79 bitrate=2341.2kbits/s speed=0.0232x elapsed=0:01:17.25    \nframe=   45 fps=0.6 q=33.7 size=     512KiB time=00:00:01.79 bitrate=2341.2kbits/s speed=0.023x elapsed=0:01:17.77    \nframe=   46 fps=0.6 q=37.0 size=     512KiB time=00:00:01.83 bitrate=2288.0kbits/s speed=0.0234x elapsed=0:01:18.28    \nframe=   47 fps=0.6 q=36.8 size=     512KiB time=00:00:01.87 bitrate=2237.1kbits/s speed=0.0238x elapsed=0:01:18.80    \nframe=   49 fps=0.6 q=35.2 size=     512KiB time=00:00:01.95 bitrate=2142.0kbits/s speed=0.0247x elapsed=0:01:19.31    \nframe=   50 fps=0.6 q=36.9 size=     512KiB time=00:00:02.00 bitrate=2097.3kbits/s speed=0.0251x elapsed=0:01:19.83    \nframe=   50 fps=0.6 q=36.9 size=     512KiB time=00:00:02.00 bitrate=2097.3kbits/s speed=0.0249x elapsed=0:01:20.34    \nframe=   51 fps=0.6 q=36.7 size=     512KiB time=00:00:02.04 bitrate=2054.5kbits/s speed=0.0252x elapsed=0:01:20.85    \nframe=   53 fps=0.7 q=29.9 size=     512KiB time=00:00:02.12 bitrate=1974.0kbits/s speed=0.0261x elapsed=0:01:21.38    \nframe=   54 fps=0.7 q=34.0 size=     768KiB time=00:00:02.16 bitrate=2903.9kbits/s speed=0.0265x elapsed=0:01:21.89    \nframe=   55 fps=0.7 q=36.9 size=     768KiB time=00:00:02.20 bitrate=2849.1kbits/s speed=0.0268x elapsed=0:01:22.41    \nframe=   56 fps=0.7 q=36.7 size=     768KiB time=00:00:02.25 bitrate=2796.4kbits/s speed=0.0271x elapsed=0:01:22.93    \nframe=   56 fps=0.7 q=36.7 size=     768KiB time=00:00:02.25 bitrate=2796.4kbits/s speed=0.027x elapsed=0:01:23.48    \nframe=   57 fps=0.7 q=29.8 size=     768KiB time=00:00:02.29 bitrate=2745.5kbits/s speed=0.0273x elapsed=0:01:24.00    \nframe=   58 fps=0.7 q=34.0 size=     768KiB time=00:00:02.33 bitrate=2696.5kbits/s speed=0.0276x elapsed=0:01:24.52    \nframe=   59 fps=0.7 q=37.0 size=     768KiB time=00:00:02.37 bitrate=2649.2kbits/s speed=0.0279x elapsed=0:01:25.03    \nframe=   60 fps=0.7 q=36.2 size=     768KiB time=00:00:02.41 bitrate=2603.5kbits/s speed=0.0282x elapsed=0:01:25.55    \nframe=   62 fps=0.7 q=33.9 size=     768KiB time=00:00:02.50 bitrate=2516.7kbits/s speed=0.029x elapsed=0:01:26.06    \nframe=   63 fps=0.7 q=36.5 size=     768KiB time=00:00:02.54 bitrate=2475.5kbits/s speed=0.0294x elapsed=0:01:26.58    \nframe=   64 fps=0.7 q=36.3 size=     768KiB time=00:00:02.58 bitrate=2435.5kbits/s speed=0.0297x elapsed=0:01:27.10    \nframe=   65 fps=0.7 q=30.1 size=     768KiB time=00:00:02.62 bitrate=2396.9kbits/s speed=0.03x elapsed=0:01:27.60    \nframe=   66 fps=0.7 q=33.9 size=     768KiB time=00:00:02.66 bitrate=2359.4kbits/s speed=0.0303x elapsed=0:01:28.13    \nframe=   67 fps=0.8 q=36.2 size=     768KiB time=00:00:02.70 bitrate=2323.1kbits/s speed=0.0306x elapsed=0:01:28.64    \nframe=   68 fps=0.8 q=36.2 size=     768KiB time=00:00:02.75 bitrate=2287.9kbits/s speed=0.0308x elapsed=0:01:29.15    \nframe=   69 fps=0.8 q=29.0 size=     768KiB time=00:00:02.79 bitrate=2253.8kbits/s speed=0.0311x elapsed=0:01:29.68    \nframe=   71 fps=0.8 q=35.4 size=    1024KiB time=00:00:02.87 bitrate=2917.9kbits/s speed=0.0319x elapsed=0:01:30.19    \nframe=   71 fps=0.8 q=35.4 size=    1024KiB time=00:00:02.87 bitrate=2917.9kbits/s speed=0.0317x elapsed=0:01:30.71    \nframe=   72 fps=0.8 q=36.0 size=    1024KiB time=00:00:02.91 bitrate=2876.2kbits/s speed=0.032x elapsed=0:01:31.23    \nframe=   73 fps=0.8 q=36.1 size=    1024KiB time=00:00:02.95 bitrate=2835.7kbits/s speed=0.0322x elapsed=0:01:31.74    \nframe=   74 fps=0.8 q=29.9 size=    1024KiB time=00:00:03.00 bitrate=2796.3kbits/s speed=0.0325x elapsed=0:01:32.26    \nframe=   75 fps=0.8 q=30.3 size=    1024KiB time=00:00:03.04 bitrate=2758.0kbits/s speed=0.0328x elapsed=0:01:32.79    \nframe=   76 fps=0.8 q=36.2 size=    1024KiB time=00:00:03.08 bitrate=2720.7kbits/s speed=0.033x elapsed=0:01:33.30    \nframe=   77 fps=0.8 q=36.7 size=    1024KiB time=00:00:03.12 bitrate=2684.5kbits/s speed=0.0333x elapsed=0:01:33.81    \nframe=   78 fps=0.8 q=37.0 size=    1024KiB time=00:00:03.16 bitrate=2649.1kbits/s speed=0.0336x elapsed=0:01:34.32    \nframe=   79 fps=0.8 q=29.7 size=    1024KiB time=00:00:03.20 bitrate=2614.7kbits/s speed=0.0338x elapsed=0:01:34.84    \nframe=   81 fps=0.8 q=36.8 size=    1024KiB time=00:00:03.29 bitrate=2548.5kbits/s speed=0.0345x elapsed=0:01:35.36    \nframe=   82 fps=0.9 q=36.6 size=    1024KiB time=00:00:03.33 bitrate=2516.7kbits/s speed=0.0348x elapsed=0:01:35.89    \nframe=   82 fps=0.9 q=36.6 size=    1024KiB time=00:00:03.33 bitrate=2516.7kbits/s speed=0.0346x elapsed=0:01:36.41    \nframe=   84 fps=0.9 q=34.1 size=    1024KiB time=00:00:03.41 bitrate=2455.3kbits/s speed=0.0353x elapsed=0:01:36.92    \nframe=   84 fps=0.9 q=34.1 size=    1024KiB time=00:00:03.41 bitrate=2455.3kbits/s speed=0.0351x elapsed=0:01:37.44    \nframe=   85 fps=0.9 q=36.3 size=    1280KiB time=00:00:03.45 bitrate=3032.1kbits/s speed=0.0353x elapsed=0:01:37.95    \nframe=   86 fps=0.9 q=36.6 size=    1280KiB time=00:00:03.50 bitrate=2996.0kbits/s speed=0.0355x elapsed=0:01:38.47    \nframe=   87 fps=0.9 q=28.6 size=    1280KiB time=00:00:03.54 bitrate=2960.8kbits/s speed=0.0358x elapsed=0:01:38.99    \nframe=   89 fps=0.9 q=36.4 size=    1280KiB time=00:00:03.62 bitrate=2892.7kbits/s speed=0.0364x elapsed=0:01:39.51    \nframe=   90 fps=0.9 q=36.4 size=    1280KiB time=00:00:03.66 bitrate=2859.8kbits/s speed=0.0367x elapsed=0:01:40.03    \nframe=   90 fps=0.9 q=36.4 size=    1280KiB time=00:00:03.66 bitrate=2859.8kbits/s speed=0.0365x elapsed=0:01:40.54    \nframe=   91 fps=0.9 q=36.3 size=    1280KiB time=00:00:03.70 bitrate=2827.7kbits/s speed=0.0367x elapsed=0:01:41.07    \nframe=   93 fps=0.9 q=33.5 size=    1280KiB time=00:00:03.79 bitrate=2765.6kbits/s speed=0.0373x elapsed=0:01:41.58    \nframe=   94 fps=0.9 q=36.5 size=    1280KiB time=00:00:03.83 bitrate=2735.5kbits/s speed=0.0375x elapsed=0:01:42.10    \nframe=   94 fps=0.9 q=36.5 size=    1280KiB time=00:00:03.83 bitrate=2735.5kbits/s speed=0.0374x elapsed=0:01:42.62    \nframe=   96 fps=0.9 q=28.9 size=    1280KiB time=00:00:03.91 bitrate=2677.3kbits/s speed=0.038x elapsed=0:01:43.15    \nframe=   97 fps=0.9 q=34.0 size=    1280KiB time=00:00:03.95 bitrate=2649.1kbits/s speed=0.0382x elapsed=0:01:43.66    \nframe=   98 fps=0.9 q=36.3 size=    1280KiB time=00:00:04.00 bitrate=2621.5kbits/s speed=0.0384x elapsed=0:01:44.18    \nframe=   99 fps=0.9 q=36.3 size=    1280KiB time=00:00:04.04 bitrate=2594.5kbits/s speed=0.0386x elapsed=0:01:44.70    \nframe=  101 fps=1.0 q=34.9 size=    1536KiB time=00:00:04.12 bitrate=3050.5kbits/s speed=0.0392x elapsed=0:01:45.23    \nframe=  102 fps=1.0 q=36.4 size=    1536KiB time=00:00:04.16 bitrate=3020.0kbits/s speed=0.0394x elapsed=0:01:45.74    \nframe=  103 fps=1.0 q=36.2 size=    1536KiB time=00:00:04.20 bitrate=2990.1kbits/s speed=0.0396x elapsed=0:01:46.27    \nframe=  104 fps=1.0 q=36.5 size=    1536KiB time=00:00:04.25 bitrate=2960.8kbits/s speed=0.0398x elapsed=0:01:46.79    \nframe=  105 fps=1.0 q=28.8 size=    1536KiB time=00:00:04.29 bitrate=2932.0kbits/s speed=0.04x elapsed=0:01:47.31    \nframe=  106 fps=1.0 q=33.4 size=    1536KiB time=00:00:04.33 bitrate=2903.8kbits/s speed=0.0402x elapsed=0:01:47.83    \nframe=  106 fps=1.0 q=33.4 size=    1536KiB time=00:00:04.33 bitrate=2903.8kbits/s speed=0.04x elapsed=0:01:48.34    \nframe=  107 fps=1.0 q=36.3 size=    1536KiB time=00:00:04.37 bitrate=2876.2kbits/s speed=0.0402x elapsed=0:01:48.85    \nframe=  109 fps=1.0 q=29.7 size=    1536KiB time=00:00:04.45 bitrate=2822.4kbits/s speed=0.0408x elapsed=0:01:49.38    \nframe=  110 fps=1.0 q=33.3 size=    1536KiB time=00:00:04.50 bitrate=2796.3kbits/s speed=0.0409x elapsed=0:01:49.89    \nframe=  111 fps=1.0 q=36.2 size=    1536KiB time=00:00:04.54 bitrate=2770.6kbits/s speed=0.0411x elapsed=0:01:50.41    \nframe=  113 fps=1.0 q=29.4 size=    1536KiB time=00:00:04.62 bitrate=2720.7kbits/s speed=0.0417x elapsed=0:01:50.92    \nframe=  115 fps=1.0 q=34.5 size=    1536KiB time=00:00:04.70 bitrate=2672.6kbits/s speed=0.0422x elapsed=0:01:51.44    \nframe=  115 fps=1.0 q=34.5 size=    1536KiB time=00:00:04.70 bitrate=2672.6kbits/s speed=0.0421x elapsed=0:01:51.96    \nframe=  117 fps=1.0 q=34.9 size=    1536KiB time=00:00:04.79 bitrate=2626.1kbits/s speed=0.0426x elapsed=0:01:52.47    \nframe=  118 fps=1.0 q=28.9 size=    1536KiB time=00:00:04.83 bitrate=2603.4kbits/s speed=0.0428x elapsed=0:01:52.98    \nframe=  120 fps=1.1 q=35.2 size=    1792KiB time=00:00:04.91 bitrate=2985.8kbits/s speed=0.0433x elapsed=0:01:53.51    \nframe=  120 fps=1.1 q=35.2 size=    1792KiB time=00:00:04.91 bitrate=2985.8kbits/s speed=0.0431x elapsed=0:01:54.03    \nframe=  122 fps=1.1 q=35.3 size=    1792KiB time=00:00:05.00 bitrate=2936.1kbits/s speed=0.0436x elapsed=0:01:54.57    \nframe=  124 fps=1.1 q=32.9 size=    1792KiB time=00:00:05.08 bitrate=2888.0kbits/s speed=0.0442x elapsed=0:01:55.09    \nframe=  125 fps=1.1 q=36.0 size=    1792KiB time=00:00:05.12 bitrate=2864.5kbits/s speed=0.0443x elapsed=0:01:55.61    \nframe=  127 fps=1.1 q=28.3 size=    1792KiB time=00:00:05.20 bitrate=2818.6kbits/s speed=0.0448x elapsed=0:01:56.13    \nframe=  129 fps=1.1 q=35.7 size=    1792KiB time=00:00:05.29 bitrate=2774.3kbits/s speed=0.0454x elapsed=0:01:56.64    \nframe=  130 fps=1.1 q=35.5 size=    1792KiB time=00:00:05.33 bitrate=2752.6kbits/s speed=0.0455x elapsed=0:01:57.16    \nframe=  132 fps=1.1 q=27.6 size=    1792KiB time=00:00:05.41 bitrate=2710.2kbits/s speed=0.046x elapsed=0:01:57.67    \nframe=  134 fps=1.1 q=35.3 size=    1792KiB time=00:00:05.50 bitrate=2669.2kbits/s speed=0.0465x elapsed=0:01:58.18    \nframe=  135 fps=1.1 q=35.1 size=    1792KiB time=00:00:05.54 bitrate=2649.1kbits/s speed=0.0467x elapsed=0:01:58.70    \nframe=  136 fps=1.1 q=34.9 size=    1792KiB time=00:00:05.58 bitrate=2629.3kbits/s speed=0.0468x elapsed=0:01:59.22    \nframe=  138 fps=1.2 q=29.3 size=    2048KiB time=00:00:05.66 bitrate=2960.7kbits/s speed=0.0473x elapsed=0:01:59.73    \nframe=  139 fps=1.2 q=35.2 size=    2048KiB time=00:00:05.70 bitrate=2939.1kbits/s speed=0.0475x elapsed=0:02:00.25    \nframe=  140 fps=1.2 q=34.8 size=    2048KiB time=00:00:05.75 bitrate=2917.8kbits/s speed=0.0476x elapsed=0:02:00.77    \nframe=  142 fps=1.2 q=28.3 size=    2048KiB time=00:00:05.83 bitrate=2876.2kbits/s speed=0.0481x elapsed=0:02:01.29    \nframe=  144 fps=1.2 q=35.0 size=    2048KiB time=00:00:05.91 bitrate=2835.6kbits/s speed=0.0486x elapsed=0:02:01.80    \nframe=  145 fps=1.2 q=35.0 size=    2048KiB time=00:00:05.95 bitrate=2815.8kbits/s speed=0.0487x elapsed=0:02:02.32    \nframe=  147 fps=1.2 q=28.3 size=    2048KiB time=00:00:06.04 bitrate=2777.0kbits/s speed=0.0492x elapsed=0:02:02.83    \nframe=  148 fps=1.2 q=32.1 size=    2048KiB time=00:00:06.08 bitrate=2758.0kbits/s speed=0.0493x elapsed=0:02:03.34    \nframe=  149 fps=1.2 q=34.8 size=    2048KiB time=00:00:06.12 bitrate=2739.2kbits/s speed=0.0494x elapsed=0:02:03.87    \nframe=  151 fps=1.2 q=28.6 size=    2048KiB time=00:00:06.20 bitrate=2702.4kbits/s speed=0.0499x elapsed=0:02:04.37    \nframe=  153 fps=1.2 q=35.0 size=    2304KiB time=00:00:06.29 bitrate=3000.0kbits/s speed=0.0504x elapsed=0:02:04.89    \nframe=  154 fps=1.2 q=35.2 size=    2304KiB time=00:00:06.33 bitrate=2980.2kbits/s speed=0.0505x elapsed=0:02:05.41    \nframe=  156 fps=1.2 q=28.4 size=    2304KiB time=00:00:06.41 bitrate=2941.5kbits/s speed=0.051x elapsed=0:02:05.93    \nframe=  157 fps=1.2 q=32.2 size=    2304KiB time=00:00:06.45 bitrate=2922.5kbits/s speed=0.0511x elapsed=0:02:06.44    \nframe=  159 fps=1.3 q=34.6 size=    2304KiB time=00:00:06.54 bitrate=2885.3kbits/s speed=0.0515x elapsed=0:02:06.95    \nframe=  161 fps=1.3 q=32.5 size=    2304KiB time=00:00:06.62 bitrate=2849.0kbits/s speed=0.052x elapsed=0:02:07.46    \nframe=  162 fps=1.3 q=34.9 size=    2304KiB time=00:00:06.66 bitrate=2831.2kbits/s speed=0.0521x elapsed=0:02:07.98    \nframe=  164 fps=1.3 q=28.8 size=    2304KiB time=00:00:06.75 bitrate=2796.3kbits/s speed=0.0525x elapsed=0:02:08.50    \nframe=  166 fps=1.3 q=34.8 size=    2304KiB time=00:00:06.83 bitrate=2762.2kbits/s speed=0.053x elapsed=0:02:09.02    \nframe=  167 fps=1.3 q=34.2 size=    2304KiB time=00:00:06.87 bitrate=2745.4kbits/s speed=0.0531x elapsed=0:02:09.53    \nframe=  169 fps=1.3 q=33.3 size=    2304KiB time=00:00:06.95 bitrate=2712.5kbits/s speed=0.0535x elapsed=0:02:10.05    \nframe=  170 fps=1.3 q=33.8 size=    2560KiB time=00:00:07.00 bitrate=2996.0kbits/s speed=0.0536x elapsed=0:02:10.57    \nframe=  171 fps=1.3 q=34.0 size=    2560KiB time=00:00:07.04 bitrate=2978.3kbits/s speed=0.0537x elapsed=0:02:11.09    \nframe=  173 fps=1.3 q=28.3 size=    2560KiB time=00:00:07.12 bitrate=2943.4kbits/s speed=0.0541x elapsed=0:02:11.62    \nframe=  174 fps=1.3 q=31.8 size=    2560KiB time=00:00:07.16 bitrate=2926.3kbits/s speed=0.0542x elapsed=0:02:12.12    \nframe=  175 fps=1.3 q=34.3 size=    2560KiB time=00:00:07.20 bitrate=2909.4kbits/s speed=0.0543x elapsed=0:02:12.64    \nframe=  177 fps=1.3 q=34.2 size=    2560KiB time=00:00:07.29 bitrate=2876.1kbits/s speed=0.0548x elapsed=0:02:13.16    \nframe=  179 fps=1.3 q=32.3 size=    2560KiB time=00:00:07.37 bitrate=2843.6kbits/s speed=0.0552x elapsed=0:02:13.67    \nframe=  181 fps=1.3 q=35.1 size=    2560KiB time=00:00:07.45 bitrate=2811.9kbits/s speed=0.0556x elapsed=0:02:14.20    \nframe=  183 fps=1.4 q=31.8 size=    2560KiB time=00:00:07.54 bitrate=2780.8kbits/s speed=0.056x elapsed=0:02:14.70    \nframe=  184 fps=1.4 q=34.5 size=    2560KiB time=00:00:07.58 bitrate=2765.5kbits/s speed=0.0561x elapsed=0:02:15.22    \nframe=  187 fps=1.4 q=28.5 size=    2560KiB time=00:00:07.70 bitrate=2720.7kbits/s speed=0.0568x elapsed=0:02:15.74    \nframe=  189 fps=1.4 q=35.4 size=    2816KiB time=00:00:07.79 bitrate=2960.7kbits/s speed=0.0572x elapsed=0:02:16.24    \nframe=  192 fps=1.4 q=35.1 size=    2816KiB time=00:00:07.91 bitrate=2914.0kbits/s speed=0.0579x elapsed=0:02:16.77    \nframe=  195 fps=1.4 q=29.1 size=    2816KiB time=00:00:08.04 bitrate=2868.7kbits/s speed=0.0586x elapsed=0:02:17.29    \nframe=  196 fps=1.4 q=34.8 size=    2816KiB time=00:00:08.08 bitrate=2853.9kbits/s speed=0.0587x elapsed=0:02:17.81    \nframe=  199 fps=1.4 q=29.1 size=    2816KiB time=00:00:08.20 bitrate=2810.4kbits/s speed=0.0593x elapsed=0:02:18.32    \nframe=  201 fps=1.4 q=35.9 size=    2816KiB time=00:00:08.29 bitrate=2782.2kbits/s speed=0.0597x elapsed=0:02:18.84    \nframe=  203 fps=1.5 q=36.3 size=    2816KiB time=00:00:08.37 bitrate=2754.5kbits/s speed=0.0601x elapsed=0:02:19.36    \nframe=  205 fps=1.5 q=33.4 size=    3072KiB time=00:00:08.45 bitrate=2975.3kbits/s speed=0.0605x elapsed=0:02:19.88    \nframe=  208 fps=1.5 q=28.6 size=    3072KiB time=00:00:08.58 bitrate=2932.0kbits/s speed=0.0611x elapsed=0:02:20.41    \nframe=  211 fps=1.5 q=35.7 size=    3072KiB time=00:00:08.70 bitrate=2889.9kbits/s speed=0.0618x elapsed=0:02:20.92    \nframe=  213 fps=1.5 q=32.8 size=    3072KiB time=00:00:08.79 bitrate=2862.5kbits/s speed=0.0622x elapsed=0:02:21.44    \nframe=  215 fps=1.5 q=35.3 size=    3072KiB time=00:00:08.87 bitrate=2835.6kbits/s speed=0.0625x elapsed=0:02:21.96    \nframe=  218 fps=1.5 q=34.4 size=    3072KiB time=00:00:09.00 bitrate=2796.2kbits/s speed=0.0632x elapsed=0:02:22.49    \nframe=  220 fps=1.5 q=34.8 size=    3328KiB time=00:00:09.08 bitrate=3001.5kbits/s speed=0.0635x elapsed=0:02:23.00    \nframe=  223 fps=1.6 q=34.5 size=    3328KiB time=00:00:09.20 bitrate=2960.7kbits/s speed=0.0642x elapsed=0:02:23.53    \nframe=  226 fps=1.6 q=28.1 size=    3328KiB time=00:00:09.33 bitrate=2921.1kbits/s speed=0.0648x elapsed=0:02:24.04    \nframe=  229 fps=1.6 q=33.5 size=    3328KiB time=00:00:09.45 bitrate=2882.5kbits/s speed=0.0654x elapsed=0:02:24.57    \nframe=  232 fps=1.6 q=28.6 size=    3328KiB time=00:00:09.58 bitrate=2844.9kbits/s speed=0.0661x elapsed=0:02:25.07    \nframe=  235 fps=1.6 q=31.9 size=    3328KiB time=00:00:09.70 bitrate=2808.2kbits/s speed=0.0667x elapsed=0:02:25.60    \n[mp4 @ 000001ae8f16a280] Starting second pass: moving the moov atom to the beginning of the file\n[out#0/mp4 @ 000001ae8f16a180] video:3623KiB audio:0KiB subtitle:0KiB other streams:0KiB global headers:2KiB muxing overhead: 0.171070%\nframe=  240 fps=1.6 q=29.1 Lsize=    3629KiB time=00:00:09.91 bitrate=2997.7kbits/s speed=0.0679x elapsed=0:02:26.13    \nx265 [info]: frame I:      1, Avg QP:29.27  kb/s: 22457.09\nx265 [info]: frame P:     54, Avg QP:29.22  kb/s: 9224.60 \nx265 [info]: frame B:    185, Avg QP:34.70  kb/s: 1034.99 \nx265 [info]: Weighted P-Frames: Y:0.0% UV:0.0%\n\nencoded 240 frames in 145.98s (1.64 fps), 2966.91 kb/s, Avg QP:33.44\n",
  "seconds": 146.3138449192047,
  "probe_out": {}
}